<?xml version="1.0" encoding="iso-8859-1"?>
<!-- Generator: Adobe Illustrator 19.0.0, SVG Export Plug-In . SVG Version: 6.00 Build 0)  -->
<svg width="12px" height="12px" stroke="#4A4A4A" version="1.1" id="Capa_1" xmlns="http://www.w3.org/2000/svg" xmlns:xlink="http://www.w3.org/1999/xlink" x="0px" y="0px"
	 viewBox="0 0 345.713 345.713" style="enable-background:new 0 0 345.713 345.713;" xml:space="preserve">
<g>
	<g>
		<g>
			<path d="M251.673,130.961c0.289-5.475-3.916-10.147-9.39-10.435c-0.179-0.009-0.357-0.014-0.536-0.014h-125.91v-47.02
				c0.47-5.172-3.343-9.746-8.515-10.216c-2.87-0.261-5.7,0.809-7.681,2.902L2.987,165.443c-3.983,4.063-3.983,10.565,0,14.629
				l97.698,99.265c1.854,2.076,4.532,3.224,7.314,3.135h2.612c3.824-1.981,5.934-6.201,5.224-10.449v-47.02h125.91
				c5.482,0.008,9.933-4.43,9.94-9.913c0-0.179-0.004-0.358-0.014-0.536V130.961z M230.775,204.104H107.999
				c-5.747,0-13.061,4.702-13.061,10.449v31.869L22.84,172.757l72.098-73.665v31.869c0,5.747,7.314,10.449,13.061,10.449h122.776
				V204.104z"/>
			<path d="M272.571,120.512c-5.771,0-10.449,4.678-10.449,10.449v83.592c0,5.771,4.678,10.449,10.449,10.449
				s10.449-4.678,10.449-10.449v-83.592C283.02,125.19,278.341,120.512,272.571,120.512z"/>
			<path d="M303.918,120.512c-5.771,0-10.449,4.678-10.449,10.449v83.592c0,5.771,4.678,10.449,10.449,10.449
				s10.449-4.678,10.449-10.449v-83.592C314.366,125.19,309.688,120.512,303.918,120.512z"/>
			<path d="M335.264,120.512c-5.771,0-10.449,4.678-10.449,10.449v83.592c0,5.771,4.678,10.449,10.449,10.449
				s10.449-4.678,10.449-10.449v-83.592C345.713,125.19,341.035,120.512,335.264,120.512z"/>
		</g>
	</g>
</g>
<g>
</g>
<g>
</g>
<g>
</g>
<g>
</g>
<g>
</g>
<g>
</g>
<g>
</g>
<g>
</g>
<g>
</g>
<g>
</g>
<g>
</g>
<g>
</g>
<g>
</g>
<g>
</g>
<g>
</g>
</svg>
